<?xml version="1.0" encoding="UTF-8"?>
<svg xmlns="http://www.w3.org/2000/svg" viewBox="0 0 1024 1024">
  <path
    fill="#ffffff"
    d="M512 40C882 40 984 142 984 512C984 882 882 984 512 984C142 984 40 882 40 512C40 142 142 40 512 40Z"/>
  <path
    transform="translate(-88.85 -15.85) scale(1.15)"
    fill="#000000"
    d="M431.875 184.410156C419.945313 184.871094 408.035156 185.648438 396.164063 186.890625C389.824219 187.679688 383.234375 188.109375 377.355469 190.800781C372.90625 192.730469 370.617188 197.429688 369.554688 201.910156C367.265625 211.445313 367.535156 221.347656 367.734375 231.089844C368.296875 239.652344 368.464844 248.574219 371.886719 256.574219C374.4375 262.6875 381.625 264.050781 387.503906 264.597656C412.003906 266.578125 436.617188 267.238281 461.066406 269.871094C469.375 271.039063 478.726563 272.507813 484.453125 279.308594C490.707031 287.058594 492.503906 297.320313 493.265625 306.988281C494.15625 322.007813 493.363281 337.058594 493.394531 352.089844C492.386719 429.109375 491.644531 506.136719 490.503906 583.167969C490.207031 608.457031 488.894531 633.726563 489.132813 659.027344C489.40625 672.257813 491.183594 685.738281 496.90625 697.808594C503.585938 712.285156 515.746094 723.964844 530.226563 730.578125C535.613281 732.917969 541.613281 735.195313 547.566406 733.867188C552.414063 732.71875 555.023438 727.808594 555.765625 723.238281C557.292969 714.257813 556.375 705.109375 556.644531 696.046875C556.234375 683.058594 556.402344 670.046875 556.375 657.058594C556.375 546.738281 556.363281 436.429688 556.382813 326.109375C556.855469 313.757813 556.453125 301.109375 560.074219 289.148438C562.394531 281.507813 568.09375 274.800781 575.765625 272.210938C586.605469 268.417969 598.285156 270.039063 609.476563 270.808594C648.195313 273.96875 686.902344 277.171875 725.632813 280.171875C728.515625 280.257813 732.753906 280.878906 734.195313 277.648438C735.324219 274.21875 731.652344 272.140625 729.453125 270.296875C674.84375 231.582031 611.625 205.113281 545.726563 193.269531C508.226563 186.441406 470.003906 183.050781 431.875 184.410156Z"/>
</svg>
